# xmcd
#
# Track frame offsets:
#	187
#	20662
#	33450
#	48195
#	61342
#	75027
#	88907
#	102565
#	120642
#	135127
#
# Disc length: 1970 seconds
#
# Revision: 2
# Processed by: cddbd v1.5.2PL0 Copyright (c) Steve Scherf et al.
# Submitted via: EZCDAudioConverter 6.0.5.1
#
DISCID=7407b00a
DTITLE=Merle Haggard - I Think I'll Just Stay Here And Drink
DYEAR=196
DGENRE=Country
TTITLE0=I Think I'll Just stay Here And Drink
TTITLE1=I'm Always On A Mountain(When I Fall)
TTITLE2=Fiddle Breakdown
TTITLE3=I Think It's Gone Forever
TTITLE4=The Dream
TTITLE5=Got Lonely Too Early (This Morning)
TTITLE6=Mama I've Got To Go To Memphis
TTITLE7=Footlights
TTITLE8=I Can't Get Away
TTITLE9=Are You Lonesome Tonight
EXTD=
EXTT0=
EXTT1=
EXTT2=
EXTT3=
EXTT4=
EXTT5=
EXTT6=
EXTT7=
EXTT8=
EXTT9=
PLAYORDER=
